<?xml version="1.0" standalone="no"?>
<!DOCTYPE svg PUBLIC "-//W3C//DTD SVG 20010904//EN"
 "http://www.w3.org/TR/2001/REC-SVG-20010904/DTD/svg10.dtd">
<svg version="1.0" xmlns="http://www.w3.org/2000/svg"
 width="512.000000pt" height="512.000000pt" viewBox="0 0 512.000000 512.000000"
 preserveAspectRatio="xMidYMid meet">

<g transform="translate(0.000000,512.000000) scale(0.100000,-0.100000)"
fill="#000000" stroke="none">
<path d="M1215 4984 c-531 -89 -963 -456 -1139 -966 -52 -151 -69 -268 -70
-463 0 -144 4 -203 22 -297 99 -527 412 -1085 962 -1713 365 -418 941 -950
1436 -1326 l134 -102 134 102 c495 376 1071 908 1436 1326 550 628 863 1186
962 1713 31 167 31 432 -1 582 -109 513 -470 924 -951 1084 -162 54 -239 67
-420 73 -139 4 -183 2 -280 -16 -310 -55 -567 -188 -782 -403 l-98 -98 -98 98
c-213 213 -472 347 -777 402 -128 24 -346 25 -470 4z"/>
</g>
</svg>
