<?xml version="1.0" standalone="no"?>
<!DOCTYPE svg PUBLIC "-//W3C//DTD SVG 20010904//EN"
 "http://www.w3.org/TR/2001/REC-SVG-20010904/DTD/svg10.dtd">
<svg version="1.0" xmlns="http://www.w3.org/2000/svg"
 width="512.000000pt" height="512.000000pt" viewBox="0 0 512.000000 512.000000"
 preserveAspectRatio="xMidYMid meet">

<g transform="translate(0.000000,512.000000) scale(0.100000,-0.100000)"
fill="#000000" stroke="none">
<path d="M1655 5100 c-623 -111 -1153 -506 -1434 -1069 -88 -174 -153 -375
-188 -576 -23 -139 -23 -471 0 -610 75 -436 280 -825 591 -1122 472 -452 1120
-640 1761 -512 188 38 440 134 612 235 l32 19 703 -700 c550 -548 714 -706
753 -725 64 -31 166 -34 240 -6 68 26 335 286 371 361 33 70 34 197 2 264 -17
34 -198 223 -723 749 l-700 703 19 32 c269 460 345 1017 206 1517 -93 337
-246 609 -483 856 -296 310 -697 521 -1117 589 -139 22 -511 19 -645 -5z m596
-190 c378 -57 721 -231 994 -505 275 -275 444 -609 506 -1000 16 -103 16 -407
0 -510 -62 -391 -231 -725 -506 -1000 -275 -275 -609 -444 -1000 -506 -103
-16 -407 -16 -510 0 -391 62 -725 231 -1000 506 -235 234 -390 507 -469 823
-39 157 -50 247 -50 432 0 185 11 275 50 432 79 316 234 589 469 823 306 306
666 473 1120 519 66 7 316 -2 396 -14z m1347 -3367 l-178 -178 -110 110 -110
109 38 30 c62 50 229 216 274 273 l43 53 110 -110 110 -110 -177 -177z m824
-470 c273 -274 499 -508 503 -521 4 -13 4 -35 0 -50 -8 -30 -225 -256 -269
-279 -62 -33 -58 -36 -591 497 l-500 500 175 175 c96 96 177 175 180 175 3 0
229 -224 502 -497z"/>
<path d="M1865 4564 c-357 -39 -667 -190 -906 -441 -186 -196 -311 -438 -365
-708 -23 -112 -26 -395 -5 -500 41 -217 121 -414 179 -448 67 -40 149 14 139
92 -2 20 -21 75 -41 123 -72 170 -102 343 -93 533 25 522 391 974 899 1110
570 153 1163 -120 1419 -653 101 -211 139 -464 104 -692 -66 -436 -339 -790
-735 -953 -303 -125 -626 -128 -928 -6 -92 37 -123 37 -163 1 -24 -22 -31 -36
-31 -65 0 -57 22 -81 109 -117 383 -161 837 -138 1212 61 379 201 650 574 728
1002 23 124 23 370 0 494 -106 583 -569 1047 -1144 1148 -90 16 -306 27 -378
19z"/>
<path d="M1955 4041 c-31 -13 -55 -45 -61 -83 -5 -27 -1 -40 20 -65 78 -93
214 -8 164 102 -20 44 -76 65 -123 46z"/>
<path d="M2271 3941 c-24 -23 -31 -37 -31 -68 1 -49 20 -73 100 -119 36 -21
101 -73 146 -119 121 -122 185 -263 201 -444 7 -88 35 -128 94 -137 31 -5 42
-1 70 24 33 30 34 33 33 104 -3 300 -176 588 -449 747 -85 50 -121 52 -164 12z"/>
<path d="M997 2309 c-29 -17 -49 -68 -43 -105 15 -76 116 -111 169 -59 29 30
36 58 25 102 -15 58 -99 92 -151 62z"/>
</g>
</svg>
