<?xml version="1.0" standalone="no"?>
<!DOCTYPE svg PUBLIC "-//W3C//DTD SVG 20010904//EN"
 "http://www.w3.org/TR/2001/REC-SVG-20010904/DTD/svg10.dtd">
<svg version="1.0" xmlns="http://www.w3.org/2000/svg"
 width="30.000000pt" height="48.000000pt" viewBox="0 0 30.000000 48.000000"
 preserveAspectRatio="xMidYMid meet">

<g transform="translate(0.000000,48.000000) scale(0.100000,-0.100000)"
fill="#000000" stroke="none">
<path d="M175 430 c-30 -31 -44 -38 -62 -34 -13 4 -23 2 -23 -4 0 -18 12 -42
21 -42 4 0 6 7 3 15 -4 10 0 15 11 15 10 0 15 -5 12 -13 -3 -7 4 -19 14 -25
10 -7 19 -19 19 -27 0 -11 -18 -15 -82 -17 -81 -3 -83 -4 -83 -28 l0 -25 145
0 145 0 0 25 c0 23 -4 25 -47 28 -42 3 -48 6 -48 26 0 12 6 28 13 35 10 11 9
12 -1 7 -7 -4 -20 -5 -29 -2 -13 5 -13 9 -2 24 13 15 12 16 -4 3 -16 -13 -16
-16 -2 -38 9 -13 14 -32 12 -41 -4 -13 -5 -12 -6 4 0 12 -8 27 -16 34 -22 18
-18 43 11 70 20 20 27 22 34 11 5 -10 8 -6 7 12 -1 15 -2 27 -2 27 -1 0 -18
-18 -40 -40z"/>
<path d="M246 455 c4 -10 -4 -27 -22 -46 -29 -30 -23 -39 10 -14 23 17 40 20
31 5 -3 -6 1 -7 9 -4 18 7 12 24 -9 24 -8 0 -11 7 -8 19 3 10 0 22 -6 25 -7 5
-8 1 -5 -9z"/>
<path d="M4 165 c-4 -8 -4 -22 0 -30 5 -13 28 -15 148 -13 l143 3 0 25 0 25
-143 3 c-120 2 -143 0 -148 -13z"/>
<path d="M4 45 c-4 -8 -4 -22 0 -30 5 -13 28 -15 148 -13 l143 3 0 25 0 25
-143 3 c-120 2 -143 0 -148 -13z"/>
</g>
</svg>
