<?xml version="1.0" standalone="no"?>
<!DOCTYPE svg PUBLIC "-//W3C//DTD SVG 20010904//EN"
 "http://www.w3.org/TR/2001/REC-SVG-20010904/DTD/svg10.dtd">
<svg version="1.0" xmlns="http://www.w3.org/2000/svg"
 width="50.000000pt" height="50.000000pt" viewBox="0 0 50.000000 50.000000"
 preserveAspectRatio="xMidYMid meet">

<g transform="translate(0.000000,50.000000) scale(0.100000,-0.100000)"
fill="#000000" stroke="none">
<path d="M245 357 c-121 -45 -226 -86 -233 -90 -21 -14 -13 -31 29 -61 l41
-29 64 31 c35 18 64 30 64 29 0 -2 -20 -18 -45 -36 -43 -31 -45 -34 -45 -82 0
-58 15 -69 55 -43 24 16 27 16 61 -2 l36 -19 19 24 c40 49 210 341 204 351 -9
15 -15 14 -250 -73z m114 -116 l-92 -151 -32 20 c-28 17 -34 18 -51 5 -28 -21
-34 -18 -34 13 1 23 17 39 100 101 93 68 110 87 93 104 -3 4 -62 -22 -130 -58
-120 -62 -125 -64 -149 -48 -14 8 -22 18 -18 22 7 8 398 149 402 146 2 -2 -38
-71 -89 -154z"/>
</g>
</svg>
