<?xml version="1.0" standalone="no"?>
<!DOCTYPE svg PUBLIC "-//W3C//DTD SVG 20010904//EN"
 "http://www.w3.org/TR/2001/REC-SVG-20010904/DTD/svg10.dtd">
<svg version="1.0" xmlns="http://www.w3.org/2000/svg"
 width="500.000000pt" height="500.000000pt" viewBox="0 0 500.000000 500.000000"
 preserveAspectRatio="xMidYMid meet">

<g transform="translate(0.000000,500.000000) scale(0.100000,-0.100000)"
fill="#000000" stroke="none">
<path d="M2290 3861 c-340 -73 -576 -322 -675 -711 -60 -237 -73 -619 -26
-795 49 -187 154 -329 299 -403 169 -87 281 -106 612 -106 331 0 443 19 612
106 145 74 250 216 299 403 16 61 23 121 26 255 20 704 -251 1160 -747 1254
-110 21 -291 20 -400 -3z"/>
<path d="M2290 1505 c-367 -51 -686 -216 -951 -492 -244 -256 -405 -581 -464
-936 l-12 -77 1637 0 1637 0 -12 77 c-31 186 -78 330 -166 508 -220 447 -608
767 -1071 886 -186 47 -409 60 -598 34z"/>
</g>
</svg>
