<?xml version="1.0" standalone="no"?>
<!DOCTYPE svg PUBLIC "-//W3C//DTD SVG 20010904//EN"
 "http://www.w3.org/TR/2001/REC-SVG-20010904/DTD/svg10.dtd">
<svg version="1.0" xmlns="http://www.w3.org/2000/svg"
 width="50.000000pt" height="50.000000pt" viewBox="0 0 50.000000 50.000000"
 preserveAspectRatio="xMidYMid meet">

<g transform="translate(0.000000,50.000000) scale(0.100000,-0.100000)"
fill="#000000" stroke="none">
<path d="M95 436 c-5 -3 -23 -7 -38 -10 -42 -10 -57 -56 -57 -176 0 -119 15
-165 57 -177 36 -10 350 -10 386 0 42 12 57 58 57 175 0 110 -12 157 -44 174
-20 12 -336 23 -361 14z m323 -32 c18 -4 34 -15 41 -30 12 -26 15 -203 5 -241
-10 -35 -67 -45 -242 -41 -195 4 -192 1 -192 155 0 111 8 139 43 153 25 10
299 13 345 4z"/>
<path d="M196 333 c-3 -4 -6 -39 -6 -80 0 -85 4 -87 78 -49 71 36 79 50 45 74
-44 31 -110 62 -117 55z m64 -58 c17 -9 30 -18 30 -20 0 -5 -56 -35 -65 -35
-3 0 -5 16 -5 35 0 40 1 40 40 20z"/>
</g>
</svg>
