<?xml version="1.0" standalone="no"?>
<!DOCTYPE svg PUBLIC "-//W3C//DTD SVG 20010904//EN"
 "http://www.w3.org/TR/2001/REC-SVG-20010904/DTD/svg10.dtd">
<svg version="1.0" xmlns="http://www.w3.org/2000/svg"
 width="50.000000pt" height="50.000000pt" viewBox="0 0 50.000000 50.000000"
 preserveAspectRatio="xMidYMid meet">

<g transform="translate(0.000000,50.000000) scale(0.100000,-0.100000)"
fill="#000000" stroke="none">
<path d="M233 480 c-34 -23 -53 -64 -53 -116 0 -30 -3 -33 -32 -36 -33 -3 -33
-4 -36 -60 l-3 -58 35 0 35 0 3 -102 3 -103 54 -3 c37 -2 57 1 62 10 5 7 9 54
9 105 l0 92 38 3 37 3 0 55 0 55 -37 3 c-32 3 -38 7 -38 27 0 20 6 24 38 27
l37 3 0 55 0 55 -60 3 c-47 2 -67 -2 -92 -18z m127 -40 c0 -26 -3 -30 -29 -30
-38 0 -53 -20 -49 -67 3 -36 5 -38 41 -41 33 -3 37 -6 37 -32 0 -26 -4 -29
-37 -32 l-38 -3 -3 -102 -3 -103 -34 0 -34 0 -3 103 -3 102 -32 3 c-29 3 -33
7 -33 32 0 25 4 29 33 32 31 3 32 4 37 62 7 75 38 106 106 106 42 0 44 -1 44
-30z"/>
</g>
</svg>
