<?xml version="1.0" standalone="no"?>
<!DOCTYPE svg PUBLIC "-//W3C//DTD SVG 20010904//EN"
 "http://www.w3.org/TR/2001/REC-SVG-20010904/DTD/svg10.dtd">
<svg version="1.0" xmlns="http://www.w3.org/2000/svg"
 width="50.000000pt" height="50.000000pt" viewBox="0 0 50.000000 50.000000"
 preserveAspectRatio="xMidYMid meet">

<g transform="translate(0.000000,50.000000) scale(0.100000,-0.100000)"
fill="#000000" stroke="none">
<path d="M71 482 c-61 -33 -71 -67 -71 -232 0 -232 18 -250 250 -250 232 0
250 18 250 250 0 232 -18 250 -250 250 -122 0 -151 -3 -179 -18z m365 -46 l34
-34 0 -152 0 -152 -34 -34 -34 -34 -152 0 -152 0 -34 34 -34 34 0 152 0 152
34 34 34 34 152 0 152 0 34 -34z"/>
<path d="M355 411 c-11 -36 17 -67 49 -55 40 15 28 74 -14 74 -19 0 -31 -6
-35 -19z"/>
<path d="M195 371 c-53 -24 -79 -64 -79 -121 0 -79 55 -134 134 -134 80 0 134
55 134 135 0 58 -30 101 -84 123 -50 20 -56 20 -105 -3z m99 -25 c21 -9 39
-27 51 -52 26 -54 6 -109 -49 -137 -36 -19 -42 -19 -79 -6 -30 10 -45 24 -60
53 -19 36 -19 42 -6 79 10 28 24 46 49 58 42 23 51 23 94 5z"/>
</g>
</svg>
