<?xml version="1.0" standalone="no"?>
<!DOCTYPE svg PUBLIC "-//W3C//DTD SVG 20010904//EN"
 "http://www.w3.org/TR/2001/REC-SVG-20010904/DTD/svg10.dtd">
<svg version="1.0" xmlns="http://www.w3.org/2000/svg"
 width="399.000000pt" height="132.000000pt" viewBox="0 0 399.000000 132.000000"
 preserveAspectRatio="xMidYMid meet">

<g transform="translate(0.000000,132.000000) scale(0.100000,-0.100000)"
fill="#000000" stroke="none">
<path d="M760 1158 c0 -7 -16 -8 -45 -4 -29 5 -45 4 -45 -3 0 -6 8 -11 18 -11
10 0 24 -9 32 -19 7 -11 17 -18 22 -15 4 3 8 1 8 -5 0 -5 9 -12 19 -16 34 -10
70 -45 64 -61 -4 -11 -9 -12 -18 -4 -13 10 -75 23 -75 16 0 -2 24 -22 54 -45
80 -60 113 -98 151 -176 28 -56 36 -84 38 -138 1 -42 6 -66 13 -63 6 2 9 -7 6
-25 -2 -16 -8 -29 -12 -29 -4 0 -13 -21 -20 -47 -11 -39 -28 -62 -89 -122 -68
-65 -85 -77 -114 -80 -5 -1 -6 -5 -2 -10 3 -6 -3 -10 -12 -10 -43 -2 -103 -14
-103 -21 0 -14 -93 -21 -109 -7 -9 7 -29 14 -46 16 -16 2 -35 10 -42 19 -8 11
-12 12 -13 5 0 -15 -30 -18 -30 -3 0 6 1 12 3 15 4 8 -38 34 -56 35 -10 0 -16
4 -13 8 3 5 -8 16 -24 25 -32 19 -73 71 -75 96 -1 9 -10 32 -20 51 -13 24 -18
53 -17 93 0 33 -3 57 -9 57 -7 0 -9 30 -7 80 2 44 0 80 -4 80 -5 0 -8 8 -8 18
-1 10 -9 2 -21 -20 -23 -45 -32 -48 -24 -10 5 23 4 24 -5 9 -6 -9 -13 -26 -15
-37 -2 -10 -9 -29 -16 -41 -21 -39 -24 -178 -5 -243 18 -59 22 -69 83 -163 83
-130 246 -210 435 -214 32 -1 63 3 70 9 7 5 33 13 58 17 141 23 287 156 350
320 33 85 33 251 1 343 -28 82 -89 182 -135 222 -20 18 -33 36 -30 41 3 5 2 9
-3 8 -13 -3 -73 22 -73 31 0 4 -20 15 -45 23 -28 10 -45 12 -45 5z m50 -18
c13 -9 13 -10 0 -10 -8 0 -22 5 -30 10 -13 9 -13 10 0 10 8 0 22 -5 30 -10z"/>
<path d="M700 1050 c8 -5 20 -10 25 -10 6 0 3 5 -5 10 -8 5 -19 10 -25 10 -5
0 -3 -5 5 -10z"/>
<path d="M1755 915 c-22 -18 -37 -36 -33 -40 9 -9 88 37 88 52 0 24 -17 21
-55 -12z"/>
<path d="M1682 844 c-16 -8 -5 -24 16 -24 16 0 19 -21 29 -182 10 -158 10
-184 -2 -191 -8 -4 -15 -12 -15 -17 0 -11 59 -13 84 -4 20 8 11 24 -13 24 -16
0 -19 16 -26 168 -5 92 -9 181 -10 197 -1 24 -7 30 -26 32 -13 1 -30 -1 -37
-3z"/>
<path d="M1504 803 c3 -21 6 -116 6 -210 0 -147 2 -173 15 -173 12 0 15 17 15
96 0 90 2 98 24 119 70 65 44 205 -37 205 -29 0 -29 -1 -23 -37z m76 -64 c0
-11 -7 -36 -16 -57 -16 -36 -17 -37 -24 -12 -5 14 -8 52 -9 85 l0 60 24 -28
c14 -15 25 -37 25 -48z"/>
<path d="M3127 834 c-11 -12 3 -24 29 -24 20 0 24 -5 24 -30 0 -44 -28 -225
-45 -293 -8 -32 -15 -61 -15 -63 0 -2 21 -4 46 -4 32 0 44 4 42 13 -3 6 -14
13 -26 15 -27 4 -27 5 -2 112 11 47 23 129 27 183 l6 97 -40 0 c-22 0 -43 -3
-46 -6z"/>
<path d="M1915 779 c-4 -6 -9 -90 -12 -185 l-4 -174 51 0 c57 0 66 15 18 28
l-33 8 0 161 c0 155 -4 188 -20 162z"/>
<path d="M2084 782 c-6 -5 -9 -67 -6 -184 l4 -178 25 0 c68 0 93 50 93 182 0
105 -16 145 -69 173 -34 17 -33 17 -47 7z m68 -63 c34 -66 18 -269 -21 -269
-13 0 -21 80 -21 202 0 119 9 133 42 67z"/>
<path d="M2311 759 c-17 -48 -14 -252 3 -294 29 -69 83 -68 113 2 16 39 18
209 2 250 -16 43 -49 73 -80 73 -21 0 -29 -7 -38 -31z m80 -15 c19 -23 19
-264 0 -287 -40 -49 -61 9 -61 174 0 64 3 119 7 122 12 12 40 7 54 -9z"/>
<path d="M2538 778 c-2 -7 -2 -89 1 -182 4 -122 9 -171 18 -174 10 -3 11 17 7
90 -4 51 -4 90 0 87 4 -4 15 -41 25 -84 10 -42 26 -84 36 -94 16 -15 17 -14
12 14 -3 17 -13 55 -22 85 -9 32 -14 72 -11 95 20 142 20 141 -5 159 -28 19
-55 21 -61 4z m50 -48 c2 -18 1 -44 -3 -58 -10 -39 -25 -8 -25 51 0 56 23 62
28 7z"/>
<path d="M2766 728 c-5 -53 -20 -134 -52 -280 -5 -22 -3 -28 10 -28 9 0 18 11
22 28 12 56 16 62 34 62 23 0 40 -28 40 -64 0 -16 6 -26 15 -26 18 0 18 -9 -1
185 -19 189 -18 185 -42 185 -16 0 -20 -10 -26 -62z m38 -120 l7 -78 -27 0
c-22 0 -25 3 -21 23 3 12 9 45 13 72 12 91 19 87 28 -17z"/>
<path d="M3317 783 c-4 -3 -7 -87 -7 -185 l0 -178 46 0 c50 0 59 22 11 28 -27
3 -27 4 -27 88 0 76 2 84 19 84 30 0 35 19 6 26 -22 6 -25 11 -25 55 0 48 1
49 30 49 39 0 38 15 -1 29 -37 13 -43 13 -52 4z"/>
<path d="M3504 779 c-13 -22 -17 -314 -5 -338 7 -12 15 -20 18 -17 4 3 5 61 4
128 -1 68 2 129 7 136 9 13 68 -139 90 -227 9 -40 26 -50 41 -23 5 10 13 91
17 180 6 147 5 162 -10 162 -14 0 -16 -14 -17 -97 0 -54 -4 -120 -7 -148 l-7
-50 -28 100 c-32 112 -71 205 -86 205 -5 0 -13 -5 -17 -11z"/>
<path d="M981 584 c0 -11 3 -14 6 -6 3 7 2 16 -1 19 -3 4 -6 -2 -5 -13z"/>
</g>
</svg>
